<!-- Generator: Adobe Illustrator 18.0.0, SVG Export Plug-In  -->
<svg version="1.0"
	 xmlns="http://www.w3.org/2000/svg" xmlns:xlink="http://www.w3.org/1999/xlink" xmlns:a="http://ns.adobe.com/AdobeSVGViewerExtensions/3.0/"
	 x="0px" y="0px" width="741.1px" height="595.4px" viewBox="0 0 741.1 595.4" enable-background="new 0 0 741.1 595.4"
	 xml:space="preserve">
<defs>
</defs>
<g>
	<g id="XMLID_2_">
		<g>
			<polygon fill="#E7EAEF" points="466.1,595.3 270.8,595.3 273.2,589.3 463.9,589.3 			"/>
			<path fill="#E7EAEF" d="M485.4,589.3c2.1,0,4,0.8,4,3s-1.8,3-4,3H466l-2.1-5.9L485.4,589.3L485.4,589.3z"/>
			<path fill="#9B9B9B" d="M373.9,13.4c0-2.2-1.8-4-4-4s-4,1.8-4,4s1.8,4,4,4S373.9,15.6,373.9,13.4z M741.1,18.4v422.1H0V18.4
				C0,8.6,6.8,0,16.6,0h705.4C731.8,0,741.1,8.6,741.1,18.4z M711.4,413.7V26.8H26.8v386.9H711.4z"/>
			<polygon fill="#E7EAEF" points="447,529.8 463.9,589.3 273.2,589.3 291.2,529.8 			"/>
			<path fill="#E7EAEF" d="M273.2,589.3l-2.4,5.9h-17.5c-2.2,0-4-0.8-4-3s1.8-3,4-3L273.2,589.3L273.2,589.3z"/>
			<path fill="#E8EBF0" d="M741.1,440.5v50.1c0,9.8-9.3,18.4-19.1,18.4H442h-0.1H296.6h-0.5H16.6C6.8,509,0,500.4,0,490.6v-50.1
				H741.1z"/>
			<polygon fill="#D7DAE1" points="441.9,509 447,529.8 291.2,529.8 296.6,509 			"/>
		</g>
	</g>
</g>
<g>
	<polygon fill="#9B9B9B" points="349.9,489.5 345.9,457.3 370.5,448.7 395.2,457.3 391.3,489.4 370.5,500.8 	"/>
	<polygon fill="#C0C0C0" points="351.5,488.5 347.8,458.6 370.5,450.6 393.3,458.6 389.7,488.3 370.5,498.9 	"/>
	<polygon fill="#DFDFDE" points="389.7,488.3 393.3,458.6 370.5,450.6 370.5,498.9 	"/>
	<g>
		<path fill="#FFFFFF" d="M359.8,472c-0.1-0.4-0.3-0.5-0.6-0.5h-0.4v-4.2h3.7c1.1,0,1.7,0.4,1.9,1.4l1.5,7.4
			c0.2,0.8,0.2,1.6,0.2,1.6h0.1c0,0,0.1-0.8,0.3-1.6l2.1-8.7h4.3l2.1,8.7c0.2,0.8,0.2,1.6,0.2,1.6h0.1c0,0,0-0.8,0.2-1.6l1.5-7.4
			c0.2-1,0.8-1.4,1.9-1.4h3.7v4.2h-0.4c-0.3,0-0.5,0.1-0.6,0.5l-3,10.2h-5.7l-1.7-6.9c-0.2-0.8-0.3-1.6-0.3-1.6h-0.1
			c0,0-0.1,0.8-0.3,1.6l-1.7,6.9h-5.8L359.8,472z"/>
	</g>
</g>
</svg>
